<svg width="81" height="55" viewBox="0 0 81 55" fill="none" xmlns="http://www.w3.org/2000/svg">
<mask id="mask0_6_31" style="mask-type:alpha" maskUnits="userSpaceOnUse" x="19" y="0" width="55" height="55">
<rect x="38.6216" y="54.4784" width="40" height="40" transform="rotate(-119.376 38.6216 54.4784)" fill="#D9D9D9"/>
</mask>
<g mask="url(#mask0_6_31)">
<path d="M53.4329 9.10015L48.7671 25.7841L54.9716 27.5196C55.2309 27.0549 55.54 26.6789 55.8989 26.3918C56.2578 26.1046 56.6592 25.8361 57.1031 25.5862C58.6683 24.7051 60.2896 24.4992 61.9671 24.9683C63.6442 25.4373 64.9234 26.4545 65.8046 28.0199C66.6856 29.5851 66.8917 31.2063 66.4229 32.8837C65.9536 34.5609 64.9364 35.8401 63.3712 36.7211C61.8058 37.6023 60.1846 37.8084 58.5075 37.3394C56.83 36.8703 55.5507 35.8532 54.6697 34.288C54.4289 33.8603 54.243 33.4071 54.1119 32.9285C53.9804 32.4497 53.9073 31.9331 53.8925 31.3785L47.726 29.6537L45.9803 35.896C46.3965 36.1823 46.759 36.5148 47.0679 36.8937C47.3767 37.2723 47.6514 37.6755 47.8922 38.1032C48.7733 39.6683 48.9792 41.2897 48.5101 42.9671C48.0411 44.6442 47.0239 45.9234 45.4585 46.8046C43.8933 47.6857 42.2721 47.8918 40.5947 47.4229C38.9175 46.9536 37.6384 45.9364 36.7573 44.3713C35.8761 42.8059 35.67 41.1846 36.139 39.5075C36.6081 37.83 37.6253 36.5507 39.1904 35.6697C39.6344 35.4198 40.0803 35.2113 40.5282 35.0443C40.976 34.8773 41.436 34.7884 41.9081 34.7777L49.9592 5.98719L51.2663 5.25138L53.4329 9.10015ZM42.1783 23.8195L41.0569 27.8293L27.0968 23.9253L24.9303 20.0766L26.2131 19.3544L42.1783 23.8195ZM45.4715 39.4659C44.9763 38.5862 44.2527 38.0134 43.3006 37.7473C42.3486 37.4809 41.4327 37.5952 40.5531 38.0904C39.6737 38.5854 39.1008 39.3091 38.8345 40.2613C38.5684 41.2132 38.6828 42.1289 39.178 43.0086C39.6731 43.888 40.3966 44.4609 41.3486 44.7273C42.3007 44.9934 43.2164 44.8789 44.0958 44.3839C44.9755 43.8887 45.5484 43.1652 45.8146 42.2133C46.0809 41.2611 45.9665 40.3453 45.4715 39.4659ZM46.9971 26.7169C46.8881 26.5233 46.7263 26.3965 46.5118 26.3365C46.2977 26.2766 46.0938 26.3012 45.9002 26.4102C45.7065 26.5192 45.5796 26.6808 45.5195 26.8951C45.4595 27.1096 45.484 27.3137 45.593 27.5073C45.7021 27.701 45.8638 27.8278 46.0783 27.8878C46.2927 27.9475 46.4967 27.9229 46.6904 27.8139C46.884 27.7049 47.0108 27.5433 47.0706 27.3292C47.1306 27.1147 47.1061 26.9106 46.9971 26.7169ZM63.3838 29.3826C62.8887 28.5029 62.1652 27.93 61.2133 27.6638C60.2611 27.3975 59.3452 27.5119 58.4658 28.0069C57.5862 28.5021 57.0133 29.2257 56.7473 30.1778C56.4808 31.1298 56.5952 32.0457 57.0904 32.9253C57.5854 33.8047 58.3091 34.3776 59.2613 34.6439C60.2132 34.9101 61.1289 34.7956 62.0086 34.3004C62.888 33.8054 63.4609 33.0818 63.7273 32.1298C63.9934 31.1777 63.8789 30.262 63.3838 29.3826Z" fill="#333333"/>
</g>
<path d="M3.632 5.488V10.992C3.89867 10.4373 4.256 10.0533 4.704 9.84C5.16267 9.616 5.67467 9.504 6.24 9.504C6.69867 9.504 7.06667 9.56267 7.344 9.68C7.62133 9.78667 7.84 9.936 8 10.128C8.18133 10.3307 8.30933 10.592 8.384 10.912C8.46933 11.232 8.512 11.664 8.512 12.208V16.512C8.512 16.96 8.58667 17.264 8.736 17.424C8.896 17.584 9.16267 17.664 9.536 17.664V18C9.33333 17.9893 9.024 17.9787 8.608 17.968C8.20267 17.9467 7.808 17.936 7.424 17.936C7.008 17.936 6.60267 17.9467 6.208 17.968C5.824 17.9787 5.536 17.9893 5.344 18V17.664C5.664 17.664 5.888 17.584 6.016 17.424C6.144 17.264 6.208 16.96 6.208 16.512V11.536C6.208 11.2693 6.18133 11.04 6.128 10.848C6.07467 10.6453 5.97333 10.4907 5.824 10.384C5.68533 10.2667 5.48267 10.208 5.216 10.208C4.928 10.208 4.66133 10.288 4.416 10.448C4.18133 10.5973 3.98933 10.8107 3.84 11.088C3.70133 11.3653 3.632 11.6853 3.632 12.048V16.512C3.632 16.96 3.696 17.264 3.824 17.424C3.952 17.584 4.176 17.664 4.496 17.664V18C4.304 17.9893 4.02133 17.9787 3.648 17.968C3.27467 17.9467 2.896 17.936 2.512 17.936C2.096 17.936 1.67467 17.9467 1.248 17.968C0.832 17.9787 0.517333 17.9893 0.304 18V17.664C0.677333 17.664 0.938667 17.584 1.088 17.424C1.248 17.264 1.328 16.96 1.328 16.512V7.408C1.328 6.928 1.25333 6.576 1.104 6.352C0.965333 6.11733 0.698667 6 0.304 6V5.664C0.645333 5.696 0.976 5.712 1.296 5.712C1.73333 5.712 2.14933 5.696 2.544 5.664C2.93867 5.62133 3.30133 5.56267 3.632 5.488ZM12.3264 18.112C11.8464 18.112 11.4464 18.0213 11.1264 17.84C10.8064 17.6587 10.5717 17.4187 10.4224 17.12C10.273 16.8107 10.1984 16.4747 10.1984 16.112C10.1984 15.6533 10.2997 15.28 10.5024 14.992C10.7157 14.704 10.9877 14.4693 11.3184 14.288C11.649 14.1067 11.9957 13.9573 12.3584 13.84C12.7317 13.7227 13.0837 13.6107 13.4144 13.504C13.7557 13.3867 14.0277 13.2533 14.2304 13.104C14.4437 12.944 14.5504 12.7413 14.5504 12.496V11.248C14.5504 10.9707 14.5024 10.7253 14.4064 10.512C14.321 10.288 14.1824 10.1173 13.9904 10C13.809 9.88267 13.569 9.824 13.2704 9.824C13.057 9.824 12.8437 9.856 12.6304 9.92C12.417 9.97333 12.241 10.0693 12.1024 10.208C12.401 10.3147 12.6304 10.48 12.7904 10.704C12.961 10.9173 13.0464 11.1627 13.0464 11.44C13.0464 11.8027 12.9184 12.0907 12.6624 12.304C12.417 12.5173 12.1237 12.624 11.7824 12.624C11.3984 12.624 11.105 12.5067 10.9024 12.272C10.7104 12.0267 10.6144 11.7333 10.6144 11.392C10.6144 11.0827 10.689 10.8267 10.8384 10.624C10.9984 10.4213 11.217 10.2293 11.4944 10.048C11.793 9.87733 12.1504 9.744 12.5664 9.648C12.993 9.552 13.4517 9.504 13.9424 9.504C14.433 9.504 14.8757 9.55733 15.2704 9.664C15.665 9.76 15.9957 9.94133 16.2624 10.208C16.5077 10.4533 16.6677 10.7573 16.7424 11.12C16.817 11.472 16.8544 11.92 16.8544 12.464V16.816C16.8544 17.0827 16.881 17.2693 16.9344 17.376C16.9877 17.472 17.0784 17.52 17.2064 17.52C17.3024 17.52 17.393 17.4933 17.4784 17.44C17.5744 17.3867 17.6757 17.3227 17.7824 17.248L17.9424 17.52C17.7184 17.712 17.457 17.8613 17.1584 17.968C16.8704 18.064 16.545 18.112 16.1824 18.112C15.7877 18.112 15.473 18.0587 15.2384 17.952C15.0037 17.8347 14.833 17.68 14.7264 17.488C14.6304 17.296 14.5824 17.072 14.5824 16.816C14.3264 17.2213 14.017 17.5413 13.6544 17.776C13.2917 18 12.849 18.112 12.3264 18.112ZM13.4624 17.088C13.6757 17.088 13.8677 17.04 14.0384 16.944C14.2197 16.8373 14.3904 16.6667 14.5504 16.432V13.152C14.4544 13.312 14.321 13.456 14.1504 13.584C13.9797 13.712 13.7984 13.8453 13.6064 13.984C13.4144 14.112 13.2277 14.256 13.0464 14.416C12.8757 14.576 12.737 14.7733 12.6304 15.008C12.5237 15.2427 12.4704 15.5253 12.4704 15.856C12.4704 16.272 12.561 16.5813 12.7424 16.784C12.9237 16.9867 13.1637 17.088 13.4624 17.088ZM20.4796 5.6C20.9276 5.6 21.2796 5.712 21.5356 5.936C21.8023 6.14933 21.9356 6.448 21.9356 6.832C21.9356 7.216 21.8023 7.52 21.5356 7.744C21.2796 7.95733 20.9276 8.064 20.4796 8.064C20.0316 8.064 19.6743 7.95733 19.4076 7.744C19.1516 7.52 19.0236 7.216 19.0236 6.832C19.0236 6.448 19.1516 6.14933 19.4076 5.936C19.6743 5.712 20.0316 5.6 20.4796 5.6ZM21.7276 9.552V16.512C21.7276 16.96 21.8023 17.264 21.9516 17.424C22.1116 17.584 22.3783 17.664 22.7516 17.664V18C22.5596 17.9893 22.261 17.9787 21.8556 17.968C21.4503 17.9467 21.0396 17.936 20.6236 17.936C20.2076 17.936 19.7863 17.9467 19.3596 17.968C18.933 17.9787 18.613 17.9893 18.3996 18V17.664C18.773 17.664 19.0343 17.584 19.1836 17.424C19.3436 17.264 19.4236 16.96 19.4236 16.512V11.472C19.4236 10.992 19.349 10.64 19.1996 10.416C19.061 10.1813 18.7943 10.064 18.3996 10.064V9.728C18.741 9.76 19.0716 9.776 19.3916 9.776C19.8396 9.776 20.2556 9.76 20.6396 9.728C21.0343 9.68533 21.397 9.62667 21.7276 9.552ZM28.9505 9.504C29.2918 9.504 29.5692 9.57867 29.7825 9.728C29.9958 9.86667 30.1505 10.048 30.2465 10.272C30.3532 10.496 30.4065 10.7307 30.4065 10.976C30.4065 11.3707 30.2892 11.696 30.0545 11.952C29.8305 12.1973 29.5318 12.32 29.1585 12.32C28.7852 12.32 28.4918 12.2293 28.2785 12.048C28.0758 11.856 27.9745 11.6053 27.9745 11.296C27.9745 10.9973 28.0385 10.752 28.1665 10.56C28.3052 10.3573 28.4758 10.1867 28.6785 10.048C28.5292 10.0053 28.3798 10.0107 28.2305 10.064C28.0278 10.096 27.8358 10.1813 27.6545 10.32C27.4732 10.448 27.3185 10.6133 27.1905 10.816C27.0625 11.008 26.9612 11.2213 26.8865 11.456C26.8118 11.68 26.7745 11.8987 26.7745 12.112V16.352C26.7745 16.864 26.8972 17.2107 27.1425 17.392C27.3985 17.5733 27.7772 17.664 28.2785 17.664V18C28.0332 17.9893 27.6758 17.9787 27.2065 17.968C26.7372 17.9467 26.2465 17.936 25.7345 17.936C25.3078 17.936 24.8758 17.9467 24.4385 17.968C24.0012 17.9787 23.6705 17.9893 23.4465 18V17.664C23.8198 17.664 24.0812 17.584 24.2305 17.424C24.3905 17.264 24.4705 16.96 24.4705 16.512V11.472C24.4705 10.992 24.3958 10.64 24.2465 10.416C24.1078 10.1813 23.8412 10.064 23.4465 10.064V9.728C23.7878 9.76 24.1185 9.776 24.4385 9.776C24.8865 9.776 25.3025 9.76 25.6865 9.728C26.0812 9.68533 26.4438 9.62667 26.7745 9.552V11.04C26.9025 10.752 27.0732 10.4907 27.2865 10.256C27.4998 10.0213 27.7452 9.84 28.0225 9.712C28.2998 9.57333 28.6092 9.504 28.9505 9.504ZM34.0833 9.504C34.5313 9.504 34.9206 9.56267 35.2513 9.68C35.5926 9.78667 35.8379 9.89333 35.9873 10C36.3499 10.2453 36.5739 10.0853 36.6593 9.52H36.9953C36.9739 9.81867 36.9579 10.1867 36.9473 10.624C36.9366 11.0507 36.9313 11.6213 36.9313 12.336H36.5953C36.5419 11.9413 36.4406 11.552 36.2913 11.168C36.1419 10.784 35.9233 10.4693 35.6353 10.224C35.3579 9.97867 34.9953 9.856 34.5473 9.856C34.2379 9.856 33.9766 9.94667 33.7633 10.128C33.5499 10.2987 33.4433 10.5493 33.4433 10.88C33.4433 11.2 33.5393 11.4827 33.7313 11.728C33.9233 11.9627 34.1686 12.192 34.4673 12.416C34.7766 12.6293 35.0966 12.8587 35.4273 13.104C35.7793 13.3707 36.0993 13.6373 36.3873 13.904C36.6753 14.16 36.9046 14.4427 37.0753 14.752C37.2459 15.0613 37.3313 15.4293 37.3313 15.856C37.3313 16.336 37.1926 16.7573 36.9153 17.12C36.6379 17.472 36.2699 17.744 35.8113 17.936C35.3633 18.128 34.8619 18.224 34.3073 18.224C33.9873 18.224 33.6993 18.192 33.4433 18.128C33.1979 18.064 32.9846 17.984 32.8033 17.888C32.6646 17.824 32.5313 17.7653 32.4033 17.712C32.2859 17.648 32.1739 17.5947 32.0673 17.552C31.9606 17.52 31.8646 17.5573 31.7793 17.664C31.7046 17.7707 31.6459 17.92 31.6033 18.112H31.2673C31.2886 17.7707 31.3046 17.3547 31.3153 16.864C31.3259 16.3733 31.3313 15.7227 31.3313 14.912H31.6673C31.7313 15.488 31.8486 16 32.0193 16.448C32.1899 16.8853 32.4193 17.232 32.7073 17.488C33.0059 17.7333 33.3793 17.856 33.8273 17.856C34.0086 17.856 34.1846 17.8187 34.3553 17.744C34.5259 17.6693 34.6646 17.5467 34.7713 17.376C34.8886 17.2053 34.9473 16.9867 34.9473 16.72C34.9473 16.2507 34.7926 15.8613 34.4833 15.552C34.1846 15.2427 33.8006 14.9067 33.3313 14.544C32.9899 14.2667 32.6646 13.9947 32.3553 13.728C32.0566 13.4507 31.8113 13.152 31.6193 12.832C31.4273 12.5013 31.3313 12.128 31.3313 11.712C31.3313 11.232 31.4593 10.8267 31.7153 10.496C31.9713 10.1653 32.3073 9.92 32.7233 9.76C33.1499 9.58933 33.6033 9.504 34.0833 9.504ZM40.5139 18.112C40.0339 18.112 39.6339 18.0213 39.3139 17.84C38.9939 17.6587 38.7592 17.4187 38.6099 17.12C38.4605 16.8107 38.3859 16.4747 38.3859 16.112C38.3859 15.6533 38.4872 15.28 38.6899 14.992C38.9032 14.704 39.1752 14.4693 39.5059 14.288C39.8365 14.1067 40.1832 13.9573 40.5459 13.84C40.9192 13.7227 41.2712 13.6107 41.6019 13.504C41.9432 13.3867 42.2152 13.2533 42.4179 13.104C42.6312 12.944 42.7379 12.7413 42.7379 12.496V11.248C42.7379 10.9707 42.6899 10.7253 42.5939 10.512C42.5085 10.288 42.3699 10.1173 42.1779 10C41.9965 9.88267 41.7565 9.824 41.4579 9.824C41.2445 9.824 41.0312 9.856 40.8179 9.92C40.6045 9.97333 40.4285 10.0693 40.2899 10.208C40.5885 10.3147 40.8179 10.48 40.9779 10.704C41.1485 10.9173 41.2339 11.1627 41.2339 11.44C41.2339 11.8027 41.1059 12.0907 40.8499 12.304C40.6045 12.5173 40.3112 12.624 39.9699 12.624C39.5859 12.624 39.2925 12.5067 39.0899 12.272C38.8979 12.0267 38.8019 11.7333 38.8019 11.392C38.8019 11.0827 38.8765 10.8267 39.0259 10.624C39.1859 10.4213 39.4045 10.2293 39.6819 10.048C39.9805 9.87733 40.3379 9.744 40.7539 9.648C41.1805 9.552 41.6392 9.504 42.1299 9.504C42.6205 9.504 43.0632 9.55733 43.4579 9.664C43.8525 9.76 44.1832 9.94133 44.4499 10.208C44.6952 10.4533 44.8552 10.7573 44.9299 11.12C45.0045 11.472 45.0419 11.92 45.0419 12.464V16.816C45.0419 17.0827 45.0685 17.2693 45.1219 17.376C45.1752 17.472 45.2659 17.52 45.3939 17.52C45.4899 17.52 45.5805 17.4933 45.6659 17.44C45.7619 17.3867 45.8632 17.3227 45.9699 17.248L46.1299 17.52C45.9059 17.712 45.6445 17.8613 45.3459 17.968C45.0579 18.064 44.7325 18.112 44.3699 18.112C43.9752 18.112 43.6605 18.0587 43.4259 17.952C43.1912 17.8347 43.0205 17.68 42.9139 17.488C42.8179 17.296 42.7699 17.072 42.7699 16.816C42.5139 17.2213 42.2045 17.5413 41.8419 17.776C41.4792 18 41.0365 18.112 40.5139 18.112ZM41.6499 17.088C41.8632 17.088 42.0552 17.04 42.2259 16.944C42.4072 16.8373 42.5779 16.6667 42.7379 16.432V13.152C42.6419 13.312 42.5085 13.456 42.3379 13.584C42.1672 13.712 41.9859 13.8453 41.7939 13.984C41.6019 14.112 41.4152 14.256 41.2339 14.416C41.0632 14.576 40.9245 14.7733 40.8179 15.008C40.7112 15.2427 40.6579 15.5253 40.6579 15.856C40.6579 16.272 40.7485 16.5813 40.9299 16.784C41.1112 16.9867 41.3512 17.088 41.6499 17.088ZM58.1058 9.504C58.8844 9.504 59.5671 9.648 60.1538 9.936C60.7404 10.224 61.1991 10.688 61.5298 11.328C61.8604 11.968 62.0258 12.816 62.0258 13.872C62.0258 14.928 61.8604 15.776 61.5298 16.416C61.1991 17.0453 60.7404 17.504 60.1538 17.792C59.5671 18.08 58.8844 18.224 58.1058 18.224C57.3484 18.224 56.6711 18.08 56.0738 17.792C55.4871 17.504 55.0231 17.0453 54.6818 16.416C54.3511 15.776 54.1858 14.928 54.1858 13.872C54.1858 12.816 54.3511 11.968 54.6818 11.328C55.0231 10.688 55.4871 10.224 56.0738 9.936C56.6711 9.648 57.3484 9.504 58.1058 9.504ZM58.1058 9.824C57.6791 9.824 57.3218 10.144 57.0338 10.784C56.7458 11.4133 56.6018 12.4427 56.6018 13.872C56.6018 15.3013 56.7458 16.3307 57.0338 16.96C57.3218 17.5893 57.6791 17.904 58.1058 17.904C58.5431 17.904 58.9004 17.5893 59.1778 16.96C59.4658 16.3307 59.6098 15.3013 59.6098 13.872C59.6098 12.4427 59.4658 11.4133 59.1778 10.784C58.9004 10.144 58.5431 9.824 58.1058 9.824ZM68.9766 9.504C69.4246 9.504 69.7873 9.56267 70.0646 9.68C70.3526 9.78667 70.5766 9.936 70.7366 10.128C70.9073 10.3307 71.03 10.592 71.1046 10.912C71.19 11.232 71.2326 11.664 71.2326 12.208V16.512C71.2326 16.96 71.3073 17.264 71.4566 17.424C71.6166 17.584 71.8833 17.664 72.2566 17.664V18C72.054 17.9893 71.75 17.9787 71.3446 17.968C70.9393 17.9467 70.5393 17.936 70.1446 17.936C69.7393 17.936 69.3393 17.9467 68.9446 17.968C68.5606 17.9787 68.2673 17.9893 68.0646 18V17.664C68.3846 17.664 68.6086 17.584 68.7366 17.424C68.8646 17.264 68.9286 16.96 68.9286 16.512V11.536C68.9286 11.2693 68.902 11.04 68.8486 10.848C68.7953 10.6453 68.6993 10.4907 68.5606 10.384C68.422 10.2667 68.214 10.208 67.9366 10.208C67.6486 10.208 67.382 10.288 67.1366 10.448C66.902 10.608 66.71 10.832 66.5606 11.12C66.422 11.3973 66.3526 11.712 66.3526 12.064V16.512C66.3526 16.96 66.4166 17.264 66.5446 17.424C66.6833 17.584 66.9073 17.664 67.2166 17.664V18C67.0246 17.9893 66.742 17.9787 66.3686 17.968C66.006 17.9467 65.6273 17.936 65.2326 17.936C64.8273 17.936 64.4113 17.9467 63.9846 17.968C63.558 17.9787 63.238 17.9893 63.0246 18V17.664C63.398 17.664 63.6593 17.584 63.8086 17.424C63.9686 17.264 64.0486 16.96 64.0486 16.512V11.472C64.0486 10.992 63.974 10.64 63.8246 10.416C63.686 10.1813 63.4193 10.064 63.0246 10.064V9.728C63.366 9.76 63.6966 9.776 64.0166 9.776C64.4646 9.776 64.8806 9.76 65.2646 9.728C65.6593 9.68533 66.022 9.62667 66.3526 9.552V10.992C66.6193 10.448 66.982 10.064 67.4406 9.84C67.8993 9.616 68.4113 9.504 68.9766 9.504ZM76.9808 9.504C77.9194 9.504 78.6554 9.78133 79.1888 10.336C79.7221 10.8907 79.9888 11.7973 79.9888 13.056H74.7248L74.6928 12.752H77.9728C77.9834 12.2293 77.9514 11.7493 77.8768 11.312C77.8021 10.864 77.6848 10.5067 77.5248 10.24C77.3648 9.97333 77.1514 9.84 76.8848 9.84C76.5114 9.84 76.1914 10.0747 75.9248 10.544C75.6688 11.0133 75.5141 11.792 75.4608 12.88L75.5088 12.976C75.4981 13.104 75.4874 13.2373 75.4768 13.376C75.4768 13.5147 75.4768 13.6587 75.4768 13.808C75.4768 14.544 75.5781 15.1413 75.7808 15.6C75.9941 16.0587 76.2608 16.3947 76.5807 16.608C76.9008 16.8107 77.2261 16.912 77.5568 16.912C77.7808 16.912 78.0101 16.88 78.2448 16.816C78.4901 16.7413 78.7354 16.6133 78.9808 16.432C79.2261 16.24 79.4554 15.9733 79.6688 15.632L79.9568 15.728C79.8288 16.1333 79.6261 16.528 79.3488 16.912C79.0714 17.296 78.7194 17.6107 78.2928 17.856C77.8661 18.1013 77.3541 18.224 76.7568 18.224C76.0314 18.224 75.3914 18.0693 74.8368 17.76C74.2821 17.4507 73.8448 16.9813 73.5247 16.352C73.2154 15.7227 73.0608 14.9227 73.0608 13.952C73.0608 12.96 73.2261 12.1333 73.5568 11.472C73.8981 10.8107 74.3621 10.32 74.9488 10C75.5461 9.66933 76.2234 9.504 76.9808 9.504Z" fill="#333333"/>
</svg>
